<svg id="图层_1" data-name="图层 1" xmlns="http://www.w3.org/2000/svg" viewBox="0 0 1557.57 483.03"><defs><style>.cls-1,.cls-2{fill:#dfe5e8;}.cls-2{font-size:350px;font-family:Pacifico;}</style></defs><path class="cls-1" d="M321.71,940.65c2.77-1.68,5.62-3.21,8.53-4.65,1.55-.77,3.12-1.5,4.7-2.22.92-.41,1.86-.81,2.78-1.23,3.2-1.46-3.37,1.33-.07,0,8.71-3.43,17.47-6.6,26.4-9.42,24.16-7.61,48.86-13.51,73.61-18.84,73.1-15.75,148.55-26.66,221-35.81,103.43-13,207.26-22.84,311.19-30.89,126.72-9.82,253.65-16.9,380.64-22q217.17-8.64,434.55-9.5,28.74-.12,57.48-.12c19.31,0,19.34-30,0-30q-222.18,0-444.28,7.82-195.18,7-390.05,20.88c-107.06,7.82-214,17.42-320.6,30.21-79.37,9.53-158.77,20.4-237.18,36.13-45.36,9.1-93.48,18.36-135.3,39-2.91,1.43-5.76,3-8.54,4.65-16.48,10-1.42,36,15.15,25.9Z" transform="translate(-299.43 -466.2)"/><text class="cls-2" transform="translate(41.24 324.1)">Data Blog</text></svg>